{"glyphs":{"￿":{"ha":1389,"x_min":0,"x_max":0,"o":""}," ":{"ha":385,"x_min":0,"x_max":0,"o":""},"万":{"ha":1389,"x_min":49,"x_max":1329,"o":"m 60 1020 l 1329 1020 l 1329 917 l 575 917 q 559 646 575 846 l 1172 646 q 1139 136 1166 505 q 884 -125 1139 -136 q 640 -125 749 -125 q 629 -54 635 -103 q 618 -5 624 -11 q 873 -11 722 -11 q 1031 152 1025 -27 q 1058 548 1042 250 l 553 548 q 125 -157 543 103 q 87 -109 109 -141 q 49 -65 60 -76 q 445 591 461 174 q 450 651 445 608 q 461 917 461 857 l 60 917 l 60 1020 z "},"　":{"ha":1389,"x_min":0,"x_max":0,"o":""},"人":{"ha":1389,"x_min":43,"x_max":1340,"o":"m 43 -43 q 651 1107 618 277 l 765 1107 q 738 868 754 982 q 1340 -16 895 190 q 1302 -71 1329 -38 q 1264 -130 1275 -109 q 694 662 841 125 q 125 -146 570 125 q 87 -98 114 -130 q 43 -43 60 -60 z "},"信":{"ha":1389,"x_min":38,"x_max":1345,"o":"m 505 315 l 1253 315 l 1253 -157 l 1150 -157 l 1150 -81 l 608 -81 l 608 -157 l 505 -157 l 505 315 m 38 494 q 331 1128 233 776 l 434 1096 q 418 1053 429 1080 q 309 781 380 939 l 309 -157 l 212 -157 l 212 586 q 81 385 146 472 q 38 494 60 445 m 608 222 l 608 0 l 1150 0 l 1150 222 l 608 222 m 781 1090 l 868 1134 q 911 1058 884 1107 q 949 977 939 1004 l 890 949 l 1345 949 l 1345 857 l 418 857 l 418 949 l 852 949 q 781 1090 819 1020 m 494 738 l 1264 738 l 1264 646 l 494 646 l 494 738 m 494 526 l 1264 526 l 1264 434 l 494 434 l 494 526 z "},"健":{"ha":1389,"x_min":33,"x_max":1351,"o":"m 667 228 l 906 228 l 906 342 l 700 342 l 700 418 l 906 418 l 906 532 l 716 532 l 716 602 l 906 602 l 906 716 l 651 716 l 651 792 l 906 792 l 906 906 l 716 906 l 716 982 l 906 982 l 906 1118 l 993 1118 l 993 982 l 1226 982 l 1226 792 l 1340 792 l 1340 716 l 1226 716 l 1226 532 l 993 532 l 993 418 l 1253 418 l 1253 342 l 993 342 l 993 228 l 1270 228 l 1270 157 l 993 157 l 993 11 l 906 11 l 906 157 l 667 157 l 667 228 m 418 434 q 510 206 450 298 q 564 515 559 336 l 363 515 l 363 597 l 553 906 l 380 906 l 380 993 l 651 993 l 651 906 l 461 597 l 651 597 l 651 510 q 570 125 635 277 q 971 -16 700 -11 q 1351 -5 1145 -22 q 1329 -60 1345 -22 q 1308 -109 1313 -92 q 1204 -109 1275 -109 q 955 -109 1058 -114 q 526 38 689 -103 q 374 -157 472 -43 q 320 -98 363 -136 q 309 -87 315 -92 q 467 109 429 33 q 336 401 385 233 l 418 434 m 33 494 q 282 1128 206 765 l 380 1107 q 277 781 331 928 l 277 -146 l 190 -146 l 190 586 q 76 385 141 488 q 33 494 60 434 m 1145 906 l 993 906 l 993 792 l 1145 792 l 1145 906 m 993 602 l 1145 602 l 1145 716 l 993 716 l 993 602 z "},"公":{"ha":1389,"x_min":38,"x_max":1351,"o":"m 873 369 q 1036 174 933 298 q 1264 -87 1183 0 l 1172 -157 q 1128 -103 1156 -141 q 1069 -33 1090 -54 q 494 -60 868 -38 q 347 -71 396 -65 q 195 -92 293 -71 l 146 11 q 255 81 212 38 q 613 597 445 293 l 727 548 q 353 27 608 342 q 993 54 624 38 q 787 304 901 174 l 873 369 m 798 1053 l 895 1090 q 1351 543 1036 727 q 1270 445 1313 505 q 798 1053 933 684 m 38 499 q 488 1069 342 722 l 591 1025 q 119 418 412 651 q 38 499 87 456 z "},"卫":{"ha":1389,"x_min":60,"x_max":1329,"o":"m 60 16 l 499 16 l 499 933 l 119 933 l 119 1031 l 1210 1031 q 1194 548 1210 749 q 933 304 1199 293 q 749 304 836 304 q 743 347 749 315 q 727 418 732 391 q 928 412 798 412 q 1085 564 1090 396 q 1096 814 1090 640 q 1101 933 1101 890 l 608 933 l 608 16 l 1329 16 l 1329 -71 l 60 -71 l 60 16 z "},"台":{"ha":1389,"x_min":76,"x_max":1356,"o":"m 1166 434 l 1166 -152 l 1058 -152 l 1058 -65 l 331 -65 l 331 -152 l 222 -152 l 222 434 l 1166 434 m 331 336 l 331 16 l 1058 16 l 1058 336 l 331 336 m 966 955 q 1356 564 1221 711 l 1264 488 q 1215 548 1248 510 q 1161 608 1177 591 q 260 570 667 591 q 125 553 179 564 l 76 656 q 184 722 141 678 q 597 1145 412 906 l 694 1085 q 282 673 515 873 q 1074 705 711 694 q 1015 765 1053 727 q 890 890 987 798 l 966 955 z "},"四":{"ha":1389,"x_min":146,"x_max":1275,"o":"m 146 1031 l 1275 1031 l 1275 -152 l 1172 -152 l 1172 -71 l 250 -71 l 250 -152 l 146 -152 l 146 1031 m 998 374 q 1145 374 1090 374 l 1128 271 l 987 271 q 803 450 798 266 l 803 933 l 613 933 q 613 770 613 846 q 553 396 608 510 q 336 174 505 282 q 260 255 304 212 q 456 439 418 347 q 510 770 505 532 q 510 933 510 846 l 250 933 l 250 16 l 1172 16 l 1172 933 l 906 933 l 906 456 q 998 374 895 363 z "},"基":{"ha":1389,"x_min":43,"x_max":1351,"o":"m 54 467 l 320 467 l 320 906 l 98 906 l 98 987 l 320 987 l 320 1134 l 418 1134 l 418 987 l 977 987 l 977 1134 l 1074 1134 l 1074 987 l 1297 987 l 1297 906 l 1074 906 l 1074 467 l 1335 467 l 1335 380 l 949 380 q 1351 157 1074 260 q 1280 65 1308 103 q 1047 190 1150 125 l 1047 130 l 743 130 l 743 0 l 1259 0 l 1259 -87 l 130 -87 l 130 0 l 646 0 l 646 130 l 336 130 l 336 190 q 109 49 233 114 q 43 130 81 87 q 434 380 288 244 l 54 380 l 54 467 m 646 336 l 743 336 l 743 212 l 1020 212 q 830 380 917 282 l 553 380 q 363 212 461 282 l 646 212 l 646 336 m 418 559 l 418 467 l 977 467 l 977 559 l 418 559 m 418 732 l 418 640 l 977 640 l 977 732 l 418 732 m 418 906 l 418 814 l 977 814 l 977 906 l 418 906 z "},"安":{"ha":1389,"x_min":43,"x_max":1345,"o":"m 271 277 q 396 472 309 331 l 43 472 l 43 570 l 456 570 q 581 808 521 684 l 684 765 q 608 635 656 727 q 570 570 581 591 l 1345 570 l 1345 472 l 1063 472 q 836 130 993 260 q 960 76 879 114 q 1253 -49 1058 33 l 1199 -146 q 1053 -76 1145 -125 q 743 60 852 16 q 146 -157 537 -71 q 130 -125 141 -146 q 92 -49 119 -109 q 640 109 445 0 q 369 233 553 146 q 271 277 304 260 m 597 1090 l 689 1145 q 727 1085 700 1123 q 803 966 781 1009 l 749 933 l 1286 933 l 1286 684 l 1183 684 l 1183 841 l 212 841 l 212 684 l 109 684 l 109 933 l 694 933 q 597 1090 640 1042 m 412 309 q 559 250 456 288 q 732 174 673 201 q 955 472 895 298 l 510 472 q 412 309 461 391 z "},"层":{"ha":1389,"x_min":33,"x_max":1345,"o":"m 1275 689 l 298 689 l 298 629 q 260 184 298 342 q 109 -157 222 16 q 33 -71 54 -92 q 195 624 206 168 l 195 1063 l 1275 1063 l 1275 689 m 922 130 l 998 190 q 1302 -92 1172 38 l 1221 -163 q 1139 -76 1188 -119 q 488 -98 673 -76 q 396 -114 450 -98 l 353 -16 q 472 43 429 5 q 640 233 575 146 l 309 233 l 309 326 l 1345 326 l 1345 233 l 770 233 q 559 0 646 76 q 1058 0 814 0 q 922 130 987 76 m 298 971 l 298 781 l 1177 781 l 1177 971 l 298 971 m 401 564 l 1226 564 l 1226 472 l 401 472 l 401 564 z "},"平":{"ha":1389,"x_min":54,"x_max":1335,"o":"m 119 1069 l 1280 1069 l 1280 966 l 749 966 l 749 418 l 1335 418 l 1335 315 l 749 315 l 749 -157 l 640 -157 l 640 315 l 54 315 l 54 418 l 640 418 l 640 966 l 119 966 l 119 1069 m 852 553 q 1118 884 971 684 l 1204 825 q 933 483 1053 618 l 852 553 m 184 825 l 266 879 q 521 553 374 749 l 429 483 q 184 825 347 613 z "},"政":{"ha":1389,"x_min":43,"x_max":1356,"o":"m 825 1128 l 928 1090 q 830 879 879 987 l 1340 879 l 1340 787 l 1221 787 q 1025 179 1172 374 q 1356 -38 1145 43 q 1335 -65 1351 -43 q 1280 -141 1297 -114 q 960 98 1063 -16 q 608 -163 846 -27 q 537 -76 581 -125 q 890 179 770 43 q 716 673 765 353 q 673 608 705 651 q 662 597 667 602 q 591 678 629 640 q 825 1128 743 868 m 76 1004 l 689 1004 l 689 911 l 472 911 l 472 581 l 667 581 l 667 488 l 472 488 l 472 136 q 586 157 510 141 q 700 179 667 174 q 700 81 694 125 q 434 33 651 71 q 54 -33 146 -16 l 43 60 q 141 76 87 71 l 141 700 l 239 700 l 239 92 q 309 109 260 98 q 374 119 353 114 l 374 911 l 76 911 l 76 1004 m 960 266 q 1112 787 1090 450 l 792 787 q 960 266 841 434 z "},"民":{"ha":1389,"x_min":136,"x_max":1335,"o":"m 174 1074 l 1226 1074 l 1226 651 l 830 651 q 863 418 841 521 l 1329 418 l 1329 320 l 884 320 q 1031 27 944 136 q 1139 -33 1096 -33 q 1199 16 1177 -33 q 1210 54 1199 27 q 1237 228 1226 146 q 1302 201 1259 217 q 1335 190 1324 195 q 1291 -5 1318 71 q 1150 -146 1253 -146 q 960 -43 1047 -146 q 781 320 841 98 l 277 320 l 277 -16 q 412 27 320 0 q 597 98 537 76 q 597 -5 597 33 q 298 -114 467 -43 q 195 -163 244 -141 l 136 -71 q 174 11 174 -33 l 174 1074 m 277 977 l 277 743 l 1123 743 l 1123 977 l 277 977 m 760 418 q 722 651 738 521 l 277 651 l 277 418 l 760 418 z "},"治":{"ha":1389,"x_min":43,"x_max":1345,"o":"m 494 418 l 1221 418 l 1221 -152 l 1123 -152 l 1123 -65 l 591 -65 l 591 -152 l 494 -152 l 494 418 m 1063 955 q 1345 543 1204 760 l 1253 483 q 1221 543 1242 505 q 1183 602 1194 586 q 1042 597 1134 602 q 559 570 711 586 q 450 553 505 570 l 407 656 q 494 722 456 684 q 776 1128 640 890 l 879 1085 q 575 667 689 803 q 857 684 662 673 q 1123 694 1036 689 q 1096 732 1112 705 q 977 901 1020 841 l 1063 955 m 591 326 l 591 16 l 1123 16 l 1123 326 l 591 326 m 244 407 q 298 385 260 401 q 347 358 331 369 q 179 -146 271 141 l 65 -98 q 244 407 168 141 m 163 1107 q 217 1069 179 1096 q 401 928 369 960 l 331 841 q 184 960 293 873 q 98 1031 125 1009 l 163 1107 m 109 776 q 342 608 228 700 l 277 521 q 43 700 141 635 l 109 776 z "},"法":{"ha":1389,"x_min":38,"x_max":1345,"o":"m 401 515 l 814 515 l 814 792 l 467 792 l 467 884 l 814 884 l 814 1128 l 917 1128 l 917 884 l 1280 884 l 1280 792 l 917 792 l 917 515 l 1345 515 l 1345 423 l 890 423 q 591 11 738 195 q 944 22 694 11 q 1101 27 1053 27 q 939 244 982 190 l 1020 309 q 1335 -81 1161 136 l 1237 -152 q 1210 -114 1232 -141 q 1166 -49 1183 -71 q 895 -60 1069 -54 q 608 -76 711 -71 q 510 -87 570 -76 q 461 -92 477 -92 l 418 11 q 553 125 483 38 q 754 423 662 255 l 401 423 l 401 515 m 233 396 q 336 353 282 374 q 315 288 331 331 q 174 -146 212 -16 l 65 -109 q 233 396 157 141 m 157 1112 q 385 917 266 1031 l 304 841 q 87 1036 212 939 l 157 1112 m 109 770 q 146 743 119 765 q 336 591 304 618 l 260 510 q 38 694 190 581 l 109 770 z "},"理":{"ha":1389,"x_min":33,"x_max":1351,"o":"m 526 255 l 863 255 l 863 412 l 553 412 l 553 1058 l 1264 1058 l 1264 412 l 960 412 l 960 255 l 1291 255 l 1291 168 l 960 168 l 960 -11 l 1351 -11 l 1351 -103 l 450 -103 l 450 -11 l 863 -11 l 863 168 l 526 168 l 526 255 m 65 570 l 228 570 l 228 917 l 49 917 l 49 1009 l 499 1009 l 499 917 l 326 917 l 326 570 l 494 570 l 494 483 l 326 483 l 326 130 q 494 179 412 157 q 505 76 499 119 q 445 60 488 71 q 65 -43 184 -5 l 33 54 q 228 103 125 81 l 228 483 l 65 483 l 65 570 m 651 694 l 651 494 l 863 494 l 863 694 l 651 694 m 960 694 l 960 494 l 1166 494 l 1166 694 l 960 694 m 651 971 l 651 776 l 863 776 l 863 971 l 651 971 m 1166 971 l 960 971 l 960 776 l 1166 776 l 1166 971 z "},"社":{"ha":1389,"x_min":38,"x_max":1335,"o":"m 488 -5 l 852 -5 l 852 629 l 543 629 l 543 732 l 852 732 l 852 1118 l 960 1118 l 960 732 l 1291 732 l 1291 629 l 960 629 l 960 -5 l 1335 -5 l 1335 -109 l 488 -109 l 488 -5 m 60 765 l 60 857 l 488 857 l 488 760 q 347 537 429 646 l 347 -152 l 244 -152 l 244 412 q 76 255 163 320 q 38 363 60 320 q 374 765 250 537 l 60 765 m 374 445 l 445 505 q 526 418 472 472 q 602 326 575 358 l 526 255 q 374 445 461 342 m 206 1080 l 304 1123 q 396 939 347 1042 l 298 890 q 206 1080 250 998 z "},"访":{"ha":1389,"x_min":49,"x_max":1345,"o":"m 803 1101 l 895 1134 q 971 939 944 1031 l 873 901 l 1345 901 l 1345 803 l 760 803 l 760 602 l 1253 602 q 1248 499 1253 564 q 1226 114 1237 233 q 998 -114 1232 -119 q 825 -114 917 -114 q 803 0 825 -76 q 987 -5 857 -5 q 1123 114 1128 -22 q 1139 445 1134 228 q 1145 510 1145 488 l 760 510 q 488 -163 765 81 q 401 -81 456 -125 q 602 190 553 54 q 651 586 651 320 l 651 803 l 461 803 l 461 901 l 873 901 q 852 960 868 917 q 803 1101 825 1053 m 510 298 q 515 260 510 288 q 526 179 521 206 q 309 16 434 125 q 244 -33 271 -5 l 174 38 q 217 163 222 81 l 217 586 l 49 586 l 49 678 l 320 678 l 320 152 q 510 298 418 222 m 184 1107 q 385 895 336 955 l 298 814 q 103 1036 217 922 l 184 1107 z "},"院":{"ha":1389,"x_min":109,"x_max":1351,"o":"m 483 271 q 320 71 488 71 q 228 65 271 65 q 217 103 222 76 q 201 168 217 130 l 201 -152 l 109 -152 l 109 1053 l 472 1053 l 472 960 q 369 602 439 825 q 483 271 488 450 m 505 450 l 1308 450 l 1308 363 l 1047 363 l 1047 43 q 1107 -22 1042 -33 l 1156 -22 q 1232 27 1226 -27 q 1248 201 1248 109 q 1302 184 1264 195 q 1351 163 1335 168 q 1335 49 1345 119 q 1329 0 1329 16 q 1150 -119 1313 -125 l 1085 -119 q 944 16 939 -125 l 944 363 l 803 363 q 461 -146 814 16 q 391 -65 429 -103 q 705 363 727 60 l 505 363 l 505 450 m 510 960 l 873 960 q 819 1112 852 1025 l 911 1139 q 933 1085 917 1123 q 971 982 955 1020 l 901 960 l 1291 960 l 1291 749 l 1194 749 l 1194 873 l 608 873 l 608 749 l 510 749 l 510 960 m 201 960 l 201 174 q 309 168 255 168 q 385 271 391 174 q 266 586 385 434 q 369 960 309 732 l 201 960 m 564 705 l 1242 705 l 1242 618 l 564 618 l 564 705 z "}}}
